<svg width="211" height="211" viewBox="0 0 211 211" fill="none" xmlns="http://www.w3.org/2000/svg">
<rect width="211" height="211" fill="#D18B4B"/>
<rect x="82.5" y="91.0601" width="46.6" height="34.44" rx="3.5" fill="#272727" stroke="#D18B4B"/>
<path d="M114.332 108.28C114.332 113.317 110.38 117.4 105.506 117.4C100.631 117.4 96.6799 113.317 96.6799 108.28C96.6799 103.243 100.631 99.16 105.506 99.16C110.38 99.16 114.332 103.243 114.332 108.28Z" fill="#D18B4B"/>
<path d="M110.066 108.28C110.066 110.798 108.09 112.84 105.653 112.84C103.216 112.84 101.24 110.798 101.24 108.28C101.24 105.762 103.216 103.72 105.653 103.72C108.09 103.72 110.066 105.762 110.066 108.28Z" fill="#272727"/>
<rect x="96.6799" y="87" width="18.24" height="10.64" rx="2" fill="#272727"/>
</svg>
